<svg width="14" height="14" viewBox="0 0 14 14" fill="none" xmlns="http://www.w3.org/2000/svg">
<g id="ic/normal/merge">
<g id="Group 32631">
<g id="Union">
<path fill-rule="evenodd" clip-rule="evenodd" d="M2.84383 8.84692C2.84383 8.18349 2.99928 7.55635 3.27573 6.99996C2.99923 6.44353 2.84375 5.81634 2.84375 5.15283C2.84375 2.8574 4.70457 0.996582 7 0.996582C9.29543 0.996582 11.1562 2.8574 11.1562 5.15283C11.1562 5.81627 11.0008 6.4434 10.7244 6.9998C10.9836 7.52145 11.1364 8.1053 11.1545 8.72295C11.1557 8.76413 11.1563 8.80545 11.1563 8.84692C11.1563 9.03049 11.1444 9.21151 11.1212 9.38919L10.2054 9.26972C10.2234 9.13155 10.2327 8.99044 10.2327 8.84692C10.2327 8.81717 10.2323 8.78752 10.2315 8.75796C10.2237 8.46847 10.1778 8.18848 10.0987 7.92281C9.33764 8.77361 8.23135 9.30908 7 9.30908C5.76871 9.30908 4.66248 8.77366 3.90142 7.92295C3.82242 8.18826 3.77657 8.46785 3.76867 8.75692C3.76785 8.78682 3.76744 8.81682 3.76744 8.84692C3.76744 8.99044 3.77677 9.13155 3.79479 9.26972L2.87894 9.38918C2.85576 9.2115 2.84383 9.03049 2.84383 8.84692ZM7 1.92019C5.21466 1.92019 3.76736 3.3675 3.76736 5.15283C3.76736 5.47396 3.81419 5.78415 3.90138 6.07694C4.63866 5.25274 5.69992 4.72445 6.88502 4.69224C6.92324 4.6912 6.9616 4.69067 7.00008 4.69067C7.03999 4.69067 7.07978 4.69124 7.11942 4.69235C8.30273 4.72572 9.36228 5.25367 10.0987 6.07681C10.1858 5.78405 10.2326 5.47391 10.2326 5.15283C10.2326 3.3675 8.78534 1.92019 7 1.92019ZM7.05148 5.61469C7.03438 5.61442 7.01725 5.61428 7.00008 5.61428C6.96956 5.61428 6.93913 5.61471 6.90881 5.61555C5.84782 5.64496 4.91461 6.1856 4.3467 6.99994C4.93085 7.83748 5.90143 8.38547 7 8.38547C8.09862 8.38547 9.06924 7.83743 9.65338 6.99982C9.07836 6.17536 8.12889 5.63148 7.05148 5.61469Z" fill="#1A1A1A" fill-opacity="0.57"/>
<path d="M3.15939 10.438C3.29961 10.7762 3.48307 11.0916 3.70274 11.3774L4.43509 10.8147C4.26404 10.5921 4.12143 10.3468 4.01256 10.0842L3.15939 10.438Z" fill="#1A1A1A" fill-opacity="0.57"/>
<path d="M10.2974 11.3774C10.5171 11.0916 10.7005 10.7762 10.8408 10.438L9.98761 10.0842C9.87873 10.3468 9.73613 10.5921 9.56508 10.8147L10.2974 11.3774Z" fill="#1A1A1A" fill-opacity="0.57"/>
<path d="M4.46957 12.1443C4.75543 12.3639 5.07085 12.5474 5.409 12.6876L5.76279 11.8344C5.50023 11.7256 5.25494 11.583 5.03235 11.4119L4.46957 12.1443Z" fill="#1A1A1A" fill-opacity="0.57"/>
<path d="M8.59117 12.6876C8.92931 12.5474 9.24474 12.3639 9.53059 12.1443L8.96781 11.4119C8.74522 11.583 8.49993 11.7256 8.23737 11.8344L8.59117 12.6876Z" fill="#1A1A1A" fill-opacity="0.57"/>
<path d="M6.45782 12.9681C6.6355 12.9912 6.81651 13.0032 7.00008 13.0032C7.18365 13.0032 7.36466 12.9912 7.54234 12.9681L7.42288 12.0522C7.28471 12.0702 7.1436 12.0796 7.00008 12.0796C6.85656 12.0796 6.71546 12.0702 6.57728 12.0522L6.45782 12.9681Z" fill="#1A1A1A" fill-opacity="0.57"/>
</g>
</g>
</g>
</svg>
