<svg width="32" height="32" viewBox="0 0 32 32" fill="none" xmlns="http://www.w3.org/2000/svg">
<g id="ic_lock">
<path id="Union" fill-rule="evenodd" clip-rule="evenodd" d="M12 8C12 5.79086 13.7909 4 16 4C18.2091 4 20 5.79086 20 8V10H12V8ZM10 10V8C10 4.68629 12.6863 2 16 2C19.3137 2 22 4.68629 22 8V10H24C25.6569 10 27 11.3431 27 13V29C27 29.5523 26.5523 30 26 30H6C5.44772 30 5 29.5523 5 29V13C5 11.3431 6.34315 10 8 10H10ZM11 12H8C7.44772 12 7 12.4477 7 13V28H25V13C25 12.4477 24.5523 12 24 12H21H11ZM16 17C14.8954 17 14 17.8954 14 19C14 20.1046 14.8954 21 16 21C17.1046 21 18 20.1046 18 19C18 17.8954 17.1046 17 16 17ZM17.0022 22.8734C18.7263 22.4286 20 20.8631 20 19C20 16.7909 18.2091 15 16 15C13.7909 15 12 16.7909 12 19C12 20.8646 13.2758 22.4312 15.0022 22.8745L15 24.999C14.9994 25.5513 15.4467 25.9994 15.999 26C16.5512 26.0006 16.9994 25.5533 17 25.001L17.0022 22.8734Z" fill="#1A1A1A"/>
</g>
</svg>
