<svg width="24" height="25" viewBox="0 0 24 25" fill="none" xmlns="http://www.w3.org/2000/svg">
<g id="ic/normal/voice">
<path id="Union" fill-rule="evenodd" clip-rule="evenodd" d="M16.6187 3.48966C16.8421 3.14082 17.306 3.0391 17.6548 3.26245C20.567 5.12714 22.5 8.39315 22.5 12.1111C22.5 15.8291 20.567 19.0951 17.6548 20.9598C17.306 21.1831 16.8421 21.0814 16.6187 20.7326C16.3954 20.3838 16.4971 19.9199 16.8459 19.6966C19.3458 18.096 21 15.2965 21 12.1111C21 8.92577 19.3458 6.12629 16.8459 4.5257C16.4971 4.30234 16.3954 3.83849 16.6187 3.48966ZM6.75 8.36112L11.25 3.86112V20.3611L6.75 15.8611H2.25V8.36112H6.75ZM15.3016 7.98641C14.9221 7.82046 14.4799 7.99359 14.3139 8.37311C14.148 8.75262 14.3211 9.19481 14.7006 9.36076C15.7613 9.82456 16.5001 10.8824 16.5001 12.1111C16.5001 13.3398 15.7613 14.3977 14.7006 14.8615C14.3211 15.0274 14.148 15.4696 14.3139 15.8491C14.4799 16.2286 14.9221 16.4018 15.3016 16.2358C16.8887 15.5418 18.0001 13.9571 18.0001 12.1111C18.0001 10.2651 16.8887 8.68039 15.3016 7.98641Z" fill="#1A1A1A" fill-opacity="0.57"/>
</g>
</svg>
