<svg width="16" height="16" viewBox="0 0 16 16" fill="none" xmlns="http://www.w3.org/2000/svg">
<g id="ic/normal/openwindow">
<g id="Vector">
<path d="M11.9621 4.30861C11.9377 4.24964 11.9015 4.19438 11.8536 4.14645C11.762 4.05492 11.6438 4.00629 11.524 4.00057C11.516 4.00019 11.508 4 11.5 4H9C8.72386 4 8.5 4.22386 8.5 4.5C8.5 4.77614 8.72386 5 9 5H10.2929L8.14645 7.14645C7.95118 7.34171 7.95118 7.65829 8.14645 7.85355C8.34171 8.04882 8.65829 8.04882 8.85355 7.85355L11 5.70711V7C11 7.27614 11.2239 7.5 11.5 7.5C11.7761 7.5 12 7.27614 12 7V4.50049L12 4.49538C11.9994 4.43179 11.9868 4.36829 11.9621 4.30861Z" fill="#1A1A1A"/>
<path fill-rule="evenodd" clip-rule="evenodd" d="M3.5 2C3.5 1.72386 3.72386 1.5 4 1.5H14C14.2761 1.5 14.5 1.72386 14.5 2V12C14.5 12.2761 14.2761 12.5 14 12.5H4C3.72386 12.5 3.5 12.2761 3.5 12V2ZM4.5 2.5V11.5H13.5V2.5H4.5Z" fill="#1A1A1A"/>
<path d="M2.5 4C2.5 3.72386 2.27614 3.5 2 3.5C1.72386 3.5 1.5 3.72386 1.5 4V14C1.5 14.2761 1.72386 14.5 2 14.5H12C12.2761 14.5 12.5 14.2761 12.5 14C12.5 13.7239 12.2761 13.5 12 13.5H2.5V4Z" fill="#1A1A1A"/>
</g>
</g>
</svg>
