<svg width="12" height="12" viewBox="0 0 12 12" fill="none" xmlns="http://www.w3.org/2000/svg">
<g id="ic/normal/plus">
<path id="Vector" d="M6.375 1.875C6.375 1.66789 6.20711 1.5 6 1.5C5.79289 1.5 5.625 1.66789 5.625 1.875V5.625H1.875C1.66789 5.625 1.5 5.79289 1.5 6C1.5 6.20711 1.66789 6.375 1.875 6.375H5.625V10.125C5.625 10.3321 5.79289 10.5 6 10.5C6.20711 10.5 6.375 10.3321 6.375 10.125V6.375H10.125C10.3321 6.375 10.5 6.20711 10.5 6C10.5 5.79289 10.3321 5.625 10.125 5.625H6.375V1.875Z" fill="white"/>
</g>
</svg>
