<svg width="16" height="16" viewBox="0 0 16 16" fill="none" xmlns="http://www.w3.org/2000/svg">
<path fill-rule="evenodd" clip-rule="evenodd" d="M12.9903 7.85355C13.1855 7.65829 13.1855 7.34171 12.9903 7.14645C12.795 6.95118 12.4784 6.95118 12.2832 7.14645L8.50025 10.9294L8.50025 2C8.50025 1.72386 8.27639 1.5 8.00025 1.5C7.72411 1.5 7.50025 1.72386 7.50025 2L7.50025 10.9292L3.71754 7.14645C3.52228 6.95118 3.2057 6.95118 3.01044 7.14645C2.81517 7.34171 2.81517 7.65829 3.01043 7.85355L7.64679 12.4899C7.74056 12.5837 7.86773 12.6364 8.00034 12.6364C8.13295 12.6364 8.26013 12.5837 8.3539 12.4899L12.9903 7.85355Z" fill="#1A1A1A"/>
<path d="M13.0005 14L3.00049 14" stroke="#1A1A1A" stroke-linecap="round"/>
</svg>
