<svg width="14" height="13" viewBox="0 0 14 13" fill="none" xmlns="http://www.w3.org/2000/svg">
<g id="Vector">
<path fill-rule="evenodd" clip-rule="evenodd" d="M3.5 7.22585C3.5 6.49858 4.07464 5.88512 4.8125 5.88512C5.55036 5.88512 6.125 6.49858 6.125 7.22585C6.125 7.95311 5.55036 8.56657 4.8125 8.56657C4.07464 8.56657 3.5 7.95311 3.5 7.22585ZM4.8125 6.76012C4.58386 6.76012 4.375 6.95544 4.375 7.22585C4.375 7.49626 4.58386 7.69157 4.8125 7.69157C5.04114 7.69157 5.25 7.49626 5.25 7.22585C5.25 6.95544 5.04114 6.76012 4.8125 6.76012Z" fill="#1A1A1A" fill-opacity="0.57"/>
<path fill-rule="evenodd" clip-rule="evenodd" d="M9.1875 5.88512C8.44964 5.88512 7.875 6.49858 7.875 7.22585C7.875 7.95311 8.44964 8.56657 9.1875 8.56657C9.92536 8.56657 10.5 7.95311 10.5 7.22585C10.5 6.49858 9.92536 5.88512 9.1875 5.88512ZM8.75 7.22585C8.75 6.95544 8.95887 6.76012 9.1875 6.76012C9.41614 6.76012 9.625 6.95544 9.625 7.22585C9.625 7.49626 9.41614 7.69157 9.1875 7.69157C8.95887 7.69157 8.75 7.49626 8.75 7.22585Z" fill="#1A1A1A" fill-opacity="0.57"/>
<path d="M5.58139 9.20061C5.81382 9.1425 6.04932 9.28213 6.11041 9.51301C6.11082 9.51435 6.11177 9.51745 6.11334 9.52208C6.11721 9.53348 6.12461 9.55358 6.13649 9.57948C6.16055 9.63199 6.20072 9.70345 6.26285 9.77445C6.37711 9.90504 6.58803 10.0625 7 10.0625C7.41197 10.0625 7.62289 9.90504 7.73715 9.77445C7.79929 9.70345 7.83945 9.63199 7.86351 9.57948C7.87539 9.55358 7.88279 9.53348 7.88666 9.52208C7.88823 9.51745 7.88919 9.51435 7.88959 9.51301C7.95069 9.28213 8.18618 9.1425 8.41861 9.20061C8.65302 9.25921 8.79554 9.49675 8.73694 9.73116L8.3125 9.62505C8.73694 9.73116 8.73681 9.73166 8.73681 9.73166L8.73668 9.73218L8.7364 9.73328L8.73577 9.73574L8.7342 9.74166C8.73301 9.74605 8.73155 9.7513 8.72978 9.75738C8.72624 9.76951 8.72147 9.78494 8.71527 9.80321C8.7029 9.83967 8.68467 9.88792 8.65895 9.94405C8.60782 10.0556 8.52493 10.2029 8.39566 10.3506C8.12711 10.6576 7.68178 10.9375 7 10.9375C6.31822 10.9375 5.87289 10.6576 5.60434 10.3506C5.47507 10.2029 5.39218 10.0556 5.34105 9.94405C5.31533 9.88792 5.2971 9.83967 5.28473 9.80321C5.27853 9.78494 5.27376 9.76951 5.27022 9.75738C5.26845 9.7513 5.26699 9.74605 5.2658 9.74166L5.26423 9.73574L5.2636 9.73328L5.26332 9.73218L5.26319 9.73166C5.26319 9.73166 5.26306 9.73116 5.6875 9.62505L5.26306 9.73116C5.20446 9.49675 5.34698 9.25921 5.58139 9.20061Z" fill="#1A1A1A" fill-opacity="0.57"/>
<path fill-rule="evenodd" clip-rule="evenodd" d="M7 0.45166C6.26214 0.45166 5.6875 1.06512 5.6875 1.79239C5.6875 2.36766 6.04705 2.87173 6.56252 3.05729C6.56245 3.06387 6.56252 3.07048 6.56274 3.07712L6.59141 3.93755H3.9375C2.72938 3.93755 1.75 4.91692 1.75 6.12505V7.04296C0.978791 7.19931 0.4375 7.76947 0.4375 8.5313C0.4375 9.29313 0.978791 9.86328 1.75 10.0196V10.5C1.75 11.7082 2.72938 12.6875 3.9375 12.6875H10.0625C11.2706 12.6875 12.25 11.7082 12.25 10.5V10.0189C13.0142 9.86179 13.5625 9.29355 13.5625 8.5313C13.5625 7.76895 13.0124 7.20118 12.25 7.04386V6.12505C12.25 4.91692 11.2706 3.93755 10.0625 3.93755H7.4669L7.43757 3.05726C7.95299 2.87167 8.3125 2.36763 8.3125 1.79239C8.3125 1.06512 7.73786 0.45166 7 0.45166ZM6.5625 1.79239C6.5625 1.52198 6.77136 1.32666 7 1.32666C7.22864 1.32666 7.4375 1.52198 7.4375 1.79239C7.4375 2.0628 7.22864 2.25811 7 2.25811C6.77136 2.25811 6.5625 2.0628 6.5625 1.79239ZM1.3125 8.5313C1.3125 8.30844 1.44159 8.06503 1.75 7.94711V9.11548C1.44159 8.99756 1.3125 8.75416 1.3125 8.5313ZM2.625 6.12505V10.5C2.625 11.2249 3.21263 11.8125 3.9375 11.8125H10.0625C10.7874 11.8125 11.375 11.2249 11.375 10.5V6.12505C11.375 5.40017 10.7874 4.81255 10.0625 4.81255H3.9375C3.21263 4.81255 2.625 5.40017 2.625 6.12505ZM12.6875 8.5313C12.6875 8.75184 12.5554 8.99496 12.25 9.11384V7.94917C12.5546 8.0683 12.6875 8.31134 12.6875 8.5313Z" fill="#1A1A1A" fill-opacity="0.57"/>
</g>
</svg>
