<svg width="11" height="10" viewBox="0 0 11 10" fill="none" xmlns="http://www.w3.org/2000/svg">
<path id="Vector" d="M2.62814 4.58036C2.799 4.75121 3.076 4.75121 3.24686 4.58036C3.41771 4.4095 3.41771 4.13249 3.24686 3.96164L2.09781 2.81259H7.09325C8.6639 2.81259 9.9375 4.08587 9.9375 5.65634C9.9375 7.2269 8.66431 8.50009 7.09375 8.50009H3.8125C3.57088 8.50009 3.375 8.69597 3.375 8.93759C3.375 9.17922 3.57088 9.37509 3.8125 9.37509H7.09375C9.14756 9.37509 10.8125 7.71015 10.8125 5.65634C10.8125 3.60245 9.14697 1.93759 7.09325 1.93759H2.38962L3.24686 1.08036C3.41771 0.909501 3.41771 0.632491 3.24686 0.461637C3.07601 0.290782 2.799 0.290782 2.62814 0.461637L0.878141 2.21164C0.707286 2.38249 0.707286 2.6595 0.878141 2.83036L2.62814 4.58036Z" fill="#1A1A1A" fill-opacity="0.57"/>
</svg>
