<svg width="12" height="12" viewBox="0 0 12 12" fill="none" xmlns="http://www.w3.org/2000/svg">
<g id="Vector">
<path d="M9.4668 2.77003C9.44545 2.71843 9.41381 2.67009 9.37186 2.62814C9.29177 2.54805 9.18836 2.50551 9.08349 2.5005C9.0765 2.50017 9.0695 2.5 9.0625 2.5H6.875C6.63338 2.5 6.4375 2.69588 6.4375 2.9375C6.4375 3.17912 6.63338 3.375 6.875 3.375H8.00628L6.12814 5.25314C5.95729 5.424 5.95729 5.701 6.12814 5.87186C6.299 6.04271 6.576 6.04271 6.74686 5.87186L8.625 3.99372V5.125C8.625 5.36662 8.82088 5.5625 9.0625 5.5625C9.30412 5.5625 9.5 5.36662 9.5 5.125V2.93793L9.49998 2.93346C9.49947 2.87782 9.48841 2.82226 9.4668 2.77003Z" fill="#1A1A1A" fill-opacity="0.57"/>
<path fill-rule="evenodd" clip-rule="evenodd" d="M2.0625 0.75C2.0625 0.508375 2.25838 0.3125 2.5 0.3125H11.25C11.4916 0.3125 11.6875 0.508375 11.6875 0.75V9.5C11.6875 9.74162 11.4916 9.9375 11.25 9.9375H2.5C2.25838 9.9375 2.0625 9.74162 2.0625 9.5V0.75ZM2.9375 1.1875V9.0625H10.8125V1.1875H2.9375Z" fill="#1A1A1A" fill-opacity="0.57"/>
<path d="M1.1875 2.5C1.1875 2.25838 0.991625 2.0625 0.75 2.0625C0.508375 2.0625 0.3125 2.25838 0.3125 2.5V11.25C0.3125 11.4916 0.508375 11.6875 0.75 11.6875H9.5C9.74162 11.6875 9.9375 11.4916 9.9375 11.25C9.9375 11.0084 9.74162 10.8125 9.5 10.8125H1.1875V2.5Z" fill="#1A1A1A" fill-opacity="0.57"/>
</g>
</svg>
