<svg width="24" height="24" viewBox="0 0 24 24" fill="none" xmlns="http://www.w3.org/2000/svg">
<path d="M18.2998 9L18.2998 6.6C18.2998 5.93726 17.7625 5.4 17.0998 5.4L6.8998 5.4C6.23706 5.4 5.6998 5.93726 5.6998 6.6L5.6998 9" stroke="#1A1A1A" stroke-width="2"/>
<path d="M5.7002 14.4L5.7002 17.1273C5.7002 17.79 6.23745 18.3273 6.9002 18.3273H10.1736C10.2783 18.3273 10.3755 18.3819 10.4299 18.4715L11.8191 20.7566C12.0528 21.1411 12.6108 21.1411 12.8445 20.7566L14.2336 18.4715C14.288 18.3819 14.3852 18.3273 14.49 18.3273H17.1002C17.7629 18.3273 18.3002 17.79 18.3002 17.1273V14.4" stroke="#1A1A1A" stroke-width="2"/>
<path d="M22.2002 12L1.80019 12" stroke="#1A1A1A" stroke-width="1.5"/>
</svg>
