<svg width="20" height="20" viewBox="0 0 20 20" fill="none" xmlns="http://www.w3.org/2000/svg">
<path fill-rule="evenodd" clip-rule="evenodd" d="M2.5 10C2.5 5.85786 5.85786 2.5 10 2.5C14.1421 2.5 17.5 5.85786 17.5 10C17.5 14.1421 14.1421 17.5 10 17.5C5.85786 17.5 2.5 14.1421 2.5 10ZM10 1.25C5.1675 1.25 1.25 5.1675 1.25 10C1.25 14.8325 5.1675 18.75 10 18.75C14.8325 18.75 18.75 14.8325 18.75 10C18.75 5.1675 14.8325 1.25 10 1.25ZM10 7.5C10.5178 7.5 10.9375 7.08027 10.9375 6.5625C10.9375 6.04473 10.5178 5.625 10 5.625C9.48223 5.625 9.0625 6.04473 9.0625 6.5625C9.0625 7.08027 9.48223 7.5 10 7.5ZM9.375 8.75H10H10.625V9.375V13.125H11.25H11.875V14.375H11.25H10.625H9.375H8.75H8.125V13.125H8.75H9.375V10H8.75V8.75H9.375Z" fill="#1A1A1A"/>
</svg>
