<svg width="20" height="20" viewBox="0 0 20 20" fill="none" xmlns="http://www.w3.org/2000/svg">
<g id="ic_close">
<path id="Union" fill-rule="evenodd" clip-rule="evenodd" d="M4.19194 3.30806C3.94786 3.06398 3.55214 3.06398 3.30806 3.30806C3.06398 3.55214 3.06398 3.94786 3.30806 4.19194L9.11612 10L3.30806 15.8081C3.06398 16.0521 3.06398 16.4479 3.30806 16.6919C3.55214 16.936 3.94786 16.936 4.19194 16.6919L10 10.8839L15.8081 16.6919C16.0521 16.936 16.4479 16.936 16.6919 16.6919C16.936 16.4479 16.936 16.0521 16.6919 15.8081L10.8839 10L16.6919 4.19194C16.936 3.94786 16.936 3.55214 16.6919 3.30806C16.4479 3.06398 16.0521 3.06398 15.8081 3.30806L10 9.11612L4.19194 3.30806Z" fill="#1A1A1A"/>
</g>
</svg>
