<svg width="41" height="41" viewBox="0 0 41 41" fill="none" xmlns="http://www.w3.org/2000/svg">
<g clip-path="url(#clip0_153_3020)">
<path fill-rule="evenodd" clip-rule="evenodd" d="M23.7417 14.6675C22.8856 14.6675 22.3719 15.3524 22.3719 16.0373C22.3719 16.7222 23.0568 17.2359 23.7417 17.2359L28.8785 17.2359L28.8785 21.1741C28.8785 25.4548 25.454 28.8793 21.1733 28.8793C16.8926 28.8793 13.4681 25.4548 13.4681 21.0029L13.4681 17.2359L18.6049 17.2359C19.2898 17.2359 19.9747 16.8934 19.9747 16.0373C19.9747 15.1812 19.2898 14.6675 18.6049 14.6675L13.4681 14.6675L13.4681 10.9005C13.4681 6.61979 16.8926 3.19525 21.1733 3.19525C25.454 3.19525 28.8785 6.61979 28.8785 10.9005L28.8785 14.6675L23.7417 14.6675ZM32.6455 19.8043C33.5017 19.8043 34.0153 20.4892 34.0153 21.1741C34.0153 27.852 28.8785 33.3313 22.7144 34.0162L22.7144 37.7832C22.7144 38.6393 22.2007 39.153 21.3445 39.153C20.4884 39.153 19.9747 38.4681 19.9747 37.7832L19.9747 34.0162C13.4681 33.3313 8.33127 27.852 8.33127 21.1741C8.33127 20.4892 8.5025 19.8043 9.35863 19.8043C10.2148 19.8043 10.7285 20.4892 10.7285 21.1741C10.7285 26.8246 15.3516 31.4478 21.0021 31.4478C26.6526 31.4478 31.2757 26.8246 31.2757 21.1741C31.2757 20.318 31.7894 19.8043 32.6455 19.8043Z" fill="white"/>
<path fill-rule="evenodd" clip-rule="evenodd" d="M20.626 33.1268L20.626 36.8768L20.626 33.1268Z" fill="white"/>
<path d="M20.626 33.1268L20.626 36.8768" stroke="white" stroke-width="2.56841" stroke-linecap="round" stroke-linejoin="round"/>
<path d="M31.876 20.6268C31.876 26.84 26.8392 31.8768 20.626 31.8768C14.4128 31.8768 9.37604 26.84 9.37604 20.6268" stroke="white" stroke-width="2.56841" stroke-linecap="round" stroke-linejoin="round"/>
<path fill-rule="evenodd" clip-rule="evenodd" d="M20.626 3.12677C16.4839 3.12677 13.126 6.48463 13.126 10.6268L13.126 14.3768L13.126 14.3768L16.876 14.3768C17.5664 14.3768 18.126 14.9364 18.126 15.6268C18.126 16.3172 17.5664 16.8768 16.876 16.8768L13.126 16.8768L13.126 16.8768L13.126 20.6268C13.126 24.7689 16.4839 28.1268 20.626 28.1268C24.7681 28.1268 28.126 24.7689 28.126 20.6268L28.126 16.8768L24.376 16.8768C23.6857 16.8768 23.126 16.3172 23.126 15.6268C23.126 14.9364 23.6857 14.3768 24.376 14.3768L28.126 14.3768L28.126 10.6268C28.126 6.48463 24.7681 3.12677 20.626 3.12677Z" fill="white"/>
</g>
<defs>
<clipPath id="clip0_153_3020">
<rect width="40" height="40" fill="white" transform="translate(0.626038 0.626831)"/>
</clipPath>
</defs>
</svg>
