<svg width="32" height="32" viewBox="0 0 32 32" fill="none" xmlns="http://www.w3.org/2000/svg">
<g id="ic/normal/qna">
<g id="Union">
<path d="M17.911 16.2795C18.0859 16.1067 18.2618 15.9358 18.4577 15.753C18.6346 15.5782 18.8155 15.3873 18.9965 15.1915C19.1844 14.9857 19.3533 14.7599 19.4982 14.5201C19.6462 14.2754 19.7671 14.0006 19.8581 13.7029C19.952 13.4002 20 13.0555 20 12.6768C20 12.0974 19.903 11.5758 19.7141 11.1233C19.5212 10.6687 19.2473 10.278 18.8985 9.96234C18.5527 9.64963 18.1389 9.40785 17.6671 9.243C16.6545 8.89033 15.3411 8.9243 14.3966 9.32692C13.8828 9.54572 13.44 9.85743 13.0832 10.2561C12.7304 10.6487 12.4565 11.1173 12.2676 11.6478C12.1656 11.9365 12.0457 12.515 12.0037 13.0055C11.9537 13.588 12.4185 14.0046 13.0032 14.0046C13.517 14.0046 13.9558 13.5181 14.0028 13.0055C14.0249 12.7623 14.0825 12.5825 14.1268 12.4444C14.1405 12.4015 14.153 12.3627 14.1627 12.3272C14.2437 12.0244 14.3686 11.7707 14.5425 11.5529C14.7164 11.3351 14.9273 11.1662 15.1872 11.0373C15.4411 10.9115 15.753 10.8475 16.1128 10.8475C16.6435 10.8475 17.0654 10.9964 17.3652 11.2881C17.6701 11.5888 17.844 12.0124 17.884 12.549C17.904 12.9276 17.86 13.2423 17.754 13.4951C17.6401 13.7618 17.4862 14.0066 17.2982 14.2234C17.0963 14.4582 16.8774 14.68 16.6405 14.8928C16.3887 15.1206 16.1448 15.3723 15.9169 15.6401C15.68 15.9188 15.4751 16.2395 15.3112 16.5962C15.1402 16.9669 15.0453 17.4095 15.0203 17.947L15.0023 19H17.0014V18.0009C17.0014 17.7887 17.061 17.6368 17.1228 17.4793C17.1361 17.4455 17.1494 17.4114 17.1623 17.3765C17.2383 17.1697 17.3402 16.9759 17.4662 16.801C17.5991 16.6162 17.749 16.4414 17.911 16.2795Z" fill="#1A1A1A"/>
<path d="M14.751 20.75V23.2505H17.2514V20.75H14.751Z" fill="#1A1A1A"/>
<path fill-rule="evenodd" clip-rule="evenodd" d="M1.99756 16.1324C1.99756 8.95536 8.34883 3.29102 15.9849 3.29102C23.6209 3.29102 29.9722 8.95536 29.9722 16.1324C29.9722 18.788 29.0939 21.2504 27.6009 23.2896L29.0336 27.4726C29.1584 27.8369 29.0629 28.2405 28.7881 28.5103C28.5133 28.78 28.108 28.868 27.746 28.7365L23.2562 27.105C21.1333 28.2928 18.6424 28.9737 15.9849 28.9737C8.34883 28.9737 1.99756 23.3094 1.99756 16.1324ZM15.9849 5.29102C9.27552 5.29102 3.99756 10.2298 3.99756 16.1324C3.99756 22.035 9.27552 26.9737 15.9849 26.9737C18.4536 26.9737 20.7406 26.2994 22.6401 25.1498C22.899 24.9931 23.215 24.9621 23.4994 25.0655L26.464 26.1427L25.5353 23.4311C25.4244 23.1073 25.4868 22.7493 25.7007 22.4821C27.1353 20.6903 27.9722 18.4969 27.9722 16.1324C27.9722 10.2298 22.6942 5.29102 15.9849 5.29102Z" fill="#1A1A1A"/>
</g>
</g>
</svg>
