<svg width="16" height="16" viewBox="0 0 16 16" fill="none" xmlns="http://www.w3.org/2000/svg">
<g id="ic/normal/search">
<g id="Vector">
<path d="M7 4.5C5.61929 4.5 4.5 5.61929 4.5 7C4.5 7.27614 4.27614 7.5 4 7.5C3.72386 7.5 3.5 7.27614 3.5 7C3.5 5.067 5.067 3.5 7 3.5C7.27614 3.5 7.5 3.72386 7.5 4C7.5 4.27614 7.27614 4.5 7 4.5Z" fill="#1A1A1A" fill-opacity="0.57"/>
<path fill-rule="evenodd" clip-rule="evenodd" d="M7 1C3.68629 1 1 3.68629 1 7C1 10.3137 3.68629 13 7 13C10.3137 13 13 10.3137 13 7C13 3.68629 10.3137 1 7 1ZM2 7C2 4.23858 4.23858 2 7 2C9.76142 2 12 4.23858 12 7C12 9.76142 9.76142 12 7 12C4.23858 12 2 9.76142 2 7Z" fill="#1A1A1A" fill-opacity="0.57"/>
<path d="M14.1464 14.8536L11.6464 12.3536C11.4512 12.1583 11.4512 11.8417 11.6464 11.6464C11.8417 11.4512 12.1583 11.4512 12.3536 11.6464L14.8536 14.1464C15.0488 14.3417 15.0488 14.6583 14.8536 14.8536C14.6583 15.0488 14.3417 15.0488 14.1464 14.8536Z" fill="#1A1A1A" fill-opacity="0.57"/>
</g>
</g>
</svg>
