<svg width="152" height="16" viewBox="0 0 152 16" fill="none" xmlns="http://www.w3.org/2000/svg">
<g id="Live Translation">
<path id="Vector" d="M147.087 4.69312C148.334 4.69312 149.342 5.08984 150.11 5.8833C150.878 6.66416 151.262 7.75988 151.262 9.17047V15.3103H148.618V9.52941C148.618 8.69817 148.41 8.06215 147.994 7.62134C147.579 7.16794 147.012 6.94124 146.294 6.94124C145.563 6.94124 144.984 7.16794 144.556 7.62134C144.14 8.06215 143.932 8.69817 143.932 9.52941V15.3103H141.288V4.84425H143.932V6.14778C144.285 5.69438 144.732 5.34173 145.274 5.08984C145.828 4.82536 146.432 4.69312 147.087 4.69312Z" fill="#001432"/>
<path id="Vector_2" d="M133.886 15.4807C132.879 15.4807 131.972 15.2603 131.166 14.8194C130.36 14.366 129.724 13.73 129.258 12.9114C128.804 12.0927 128.578 11.1481 128.578 10.0776C128.578 9.00708 128.811 8.06249 129.277 7.24384C129.755 6.4252 130.404 5.79547 131.222 5.35466C132.041 4.90126 132.954 4.67456 133.962 4.67456C134.969 4.67456 135.882 4.90126 136.701 5.35466C137.52 5.79547 138.162 6.4252 138.628 7.24384C139.107 8.06249 139.346 9.00708 139.346 10.0776C139.346 11.1481 139.1 12.0927 138.609 12.9114C138.131 13.73 137.476 14.366 136.644 14.8194C135.826 15.2603 134.906 15.4807 133.886 15.4807ZM133.886 13.1759C134.365 13.1759 134.812 13.0625 135.228 12.8358C135.656 12.5965 135.996 12.2439 136.248 11.7779C136.5 11.3119 136.626 10.7451 136.626 10.0776C136.626 9.08264 136.361 8.32067 135.832 7.7917C135.316 7.25014 134.68 6.97936 133.924 6.97936C133.168 6.97936 132.532 7.25014 132.016 7.7917C131.512 8.32067 131.26 9.08264 131.26 10.0776C131.26 11.0726 131.506 11.8408 131.997 12.3824C132.501 12.9114 133.131 13.1759 133.886 13.1759Z" fill="#001432"/>
<path id="Vector_3" d="M126.625 4.84558V15.3116H123.98V4.84558H126.625Z" fill="#001432"/>
<path id="Vector_4" d="M124.151 3.16374C124.466 3.45341 124.856 3.59825 125.322 3.59825C125.788 3.59825 126.172 3.45341 126.474 3.16374C126.789 2.86147 126.947 2.48993 126.947 2.04913C126.947 1.60832 126.789 1.24308 126.474 0.953402C126.172 0.651134 125.788 0.5 125.322 0.5C124.856 0.5 124.466 0.651134 124.151 0.953402C123.848 1.24308 123.697 1.60832 123.697 2.04913C123.697 2.48993 123.848 2.86147 124.151 3.16374Z" fill="#1978F0"/>
<path id="Vector_5" d="M119.736 7.0194V12.0824C119.736 12.435 119.818 12.6932 119.982 12.857C120.158 13.0081 120.448 13.0837 120.851 13.0837H122.079V15.3129H120.416C118.187 15.3129 117.073 14.2298 117.073 12.0635V7.0194H115.826V4.84684H117.073V2.25867H119.736V4.84684H122.079V7.0194H119.736Z" fill="#001432"/>
<path id="Vector_6" d="M103.175 10.0398C103.175 8.98189 103.383 8.0436 103.798 7.22495C104.226 6.40631 104.799 5.77658 105.517 5.33577C106.248 4.89496 107.06 4.67456 107.954 4.67456C108.735 4.67456 109.415 4.83199 109.995 5.14685C110.587 5.46172 111.059 5.85845 111.412 6.33704V4.84459H114.075V15.3106H111.412V13.7804C111.072 14.2716 110.599 14.6809 109.995 15.0084C109.403 15.3232 108.716 15.4807 107.936 15.4807C107.054 15.4807 106.248 15.254 105.517 14.8006C104.799 14.3472 104.226 13.7111 103.798 12.8925C103.383 12.0612 103.175 11.1104 103.175 10.0398ZM111.412 10.0776C111.412 9.43529 111.286 8.88743 111.034 8.43403C110.782 7.96803 110.442 7.61538 110.014 7.37609C109.585 7.12419 109.126 6.99825 108.635 6.99825C108.143 6.99825 107.69 7.1179 107.274 7.35719C106.859 7.59649 106.519 7.94914 106.254 8.41513C106.002 8.86854 105.876 9.4101 105.876 10.0398C105.876 10.6696 106.002 11.2237 106.254 11.7023C106.519 12.1683 106.859 12.5272 107.274 12.7791C107.703 13.031 108.156 13.157 108.635 13.157C109.126 13.157 109.585 13.0373 110.014 12.798C110.442 12.5461 110.782 12.1935 111.034 11.7401C111.286 11.2741 111.412 10.7199 111.412 10.0776Z" fill="#001432"/>
<path id="Vector_7" d="M100.901 15.4999C99.8557 15.4999 99.0685 15.204 98.5395 14.612C98.0106 14.0075 97.7461 13.1259 97.7461 11.9672V3.03137C97.7461 2.64094 97.8468 2.34497 98.0484 2.14346C98.2499 1.94194 98.5395 1.84119 98.9174 1.84119C99.2952 1.84119 99.5849 1.94194 99.7864 2.14346C100.001 2.34497 100.108 2.64094 100.108 3.03137V11.8538C100.108 12.4332 100.227 12.8614 100.467 13.1385C100.718 13.4156 101.071 13.5541 101.524 13.5541C101.625 13.5541 101.72 13.5541 101.808 13.5541C101.896 13.5415 101.984 13.5289 102.072 13.5163C102.249 13.4911 102.368 13.5415 102.431 13.6674C102.494 13.7808 102.526 14.0201 102.526 14.3853C102.526 14.7002 102.463 14.9458 102.337 15.1221C102.211 15.2984 102.003 15.4055 101.713 15.4433C101.587 15.4559 101.455 15.4685 101.317 15.4811C101.178 15.4936 101.04 15.4999 100.901 15.4999Z" fill="#001432"/>
<path id="Vector_8" d="M91.5327 15.4807C90.6763 15.4807 89.9081 15.3295 89.2279 15.0273C88.5478 14.7124 88.0063 14.2905 87.6033 13.7615C87.2128 13.2325 86.9987 12.6469 86.9609 12.0046H89.6247C89.6751 12.4076 89.8703 12.7414 90.2103 13.0058C90.563 13.2703 90.9975 13.4026 91.5139 13.4026C92.0176 13.4026 92.4081 13.3018 92.6851 13.1003C92.9748 12.8988 93.1197 12.6406 93.1197 12.3257C93.1197 11.9857 92.9433 11.7338 92.5907 11.5701C92.2506 11.3937 91.7028 11.2048 90.9471 11.0033C90.1662 10.8144 89.5239 10.6192 89.0201 10.4177C88.529 10.2162 88.1007 9.90758 87.7355 9.49196C87.3829 9.07635 87.2065 8.51589 87.2065 7.8106C87.2065 7.23125 87.3703 6.70228 87.6977 6.22369C88.0378 5.74509 88.5164 5.36726 89.1335 5.09018C89.7632 4.8131 90.5 4.67456 91.3438 4.67456C92.5907 4.67456 93.5857 4.98942 94.3287 5.61915C95.0718 6.23628 95.4811 7.07382 95.5567 8.13176H93.0252C92.9874 7.71614 92.8111 7.38868 92.4962 7.14938C92.194 6.89749 91.7846 6.77155 91.2683 6.77155C90.7897 6.77155 90.4181 6.85971 90.1536 7.03603C89.9018 7.21236 89.7758 7.45795 89.7758 7.77281C89.7758 8.12546 89.9521 8.39624 90.3048 8.58516C90.6574 8.76148 91.2053 8.9441 91.9484 9.13302C92.704 9.32194 93.3275 9.51715 93.8187 9.71867C94.3098 9.92018 94.7318 10.235 95.0844 10.6633C95.4496 11.0789 95.6386 11.633 95.6512 12.3257C95.6512 12.9303 95.4811 13.4718 95.1411 13.9504C94.8136 14.429 94.335 14.8069 93.7053 15.0839C93.0882 15.3484 92.364 15.4807 91.5327 15.4807Z" fill="#001432"/>
<path id="Vector_9" d="M80.8369 4.69312C82.0838 4.69312 83.0913 5.08984 83.8596 5.8833C84.6278 6.66416 85.012 7.75988 85.012 9.17047V15.3103H82.3671V9.52941C82.3671 8.69817 82.1593 8.06215 81.7437 7.62134C81.3281 7.16794 80.7613 6.94124 80.0434 6.94124C79.313 6.94124 78.7336 7.16794 78.3054 7.62134C77.8898 8.06215 77.682 8.69817 77.682 9.52941V15.3103H75.0371V4.84425H77.682V6.14778C78.0346 5.69438 78.4817 5.34173 79.0233 5.08984C79.5774 4.82536 80.182 4.69312 80.8369 4.69312Z" fill="#001432"/>
<path id="Vector_10" d="M61.5542 10.0398C61.5542 8.98189 61.762 8.0436 62.1776 7.22495C62.6058 6.40631 63.1789 5.77658 63.8968 5.33577C64.6273 4.89496 65.4396 4.67456 66.3338 4.67456C67.1147 4.67456 67.7948 4.83199 68.3741 5.14685C68.9661 5.46172 69.4384 5.85845 69.791 6.33704V4.84459H72.4548V15.3106H69.791V13.7804C69.451 14.2716 68.9787 14.6809 68.3741 15.0084C67.7822 15.3232 67.0958 15.4807 66.3149 15.4807C65.4333 15.4807 64.6273 15.254 63.8968 14.8006C63.1789 14.3472 62.6058 13.7111 62.1776 12.8925C61.762 12.0612 61.5542 11.1104 61.5542 10.0398ZM69.791 10.0776C69.791 9.43529 69.6651 8.88743 69.4132 8.43403C69.1613 7.96803 68.8212 7.61538 68.393 7.37609C67.9648 7.12419 67.5051 6.99825 67.0139 6.99825C66.5227 6.99825 66.0693 7.1179 65.6537 7.35719C65.2381 7.59649 64.898 7.94914 64.6336 8.41513C64.3817 8.86854 64.2557 9.4101 64.2557 10.0398C64.2557 10.6696 64.3817 11.2237 64.6336 11.7023C64.898 12.1683 65.2381 12.5272 65.6537 12.7791C66.0819 13.031 66.5353 13.157 67.0139 13.157C67.5051 13.157 67.9648 13.0373 68.393 12.798C68.8212 12.5461 69.1613 12.1935 69.4132 11.7401C69.6651 11.2741 69.791 10.7199 69.791 10.0776Z" fill="#001432"/>
<path id="Vector_11" d="M57.2396 6.46894C57.5796 5.91478 58.0204 5.48027 58.562 5.16541C59.1162 4.85055 59.7459 4.69312 60.4512 4.69312V7.47021H59.7522C58.9209 7.47021 58.2912 7.66542 57.863 8.05585C57.4474 8.44628 57.2396 9.12639 57.2396 10.0962V15.3103H54.5947V4.84425H57.2396V6.46894Z" fill="#001432"/>
<path id="Vector_12" d="M52.6658 2.12292V4.2577H49.1519V15.3094H46.507V4.2577H42.9932V2.12292H52.6658Z" fill="#001432"/>
<path id="Vector_13" d="M37.259 9.85091C37.259 10.2287 37.2338 10.5688 37.1834 10.8711H29.5322C29.5952 11.6267 29.8597 12.2187 30.3257 12.6469C30.7917 13.0751 31.3647 13.2892 32.0448 13.2892C33.0272 13.2892 33.7262 12.8673 34.1418 12.0235H36.9945C36.6922 13.031 36.1129 13.8623 35.2565 14.5172C34.4 15.1595 33.3484 15.4807 32.1015 15.4807C31.094 15.4807 30.1872 15.2603 29.3811 14.8194C28.5877 14.366 27.9642 13.73 27.5108 12.9114C27.07 12.0927 26.8496 11.1481 26.8496 10.0776C26.8496 8.99448 27.07 8.0436 27.5108 7.22495C27.9516 6.40631 28.5688 5.77658 29.3622 5.33577C30.1557 4.89496 31.0688 4.67456 32.1015 4.67456C33.0965 4.67456 33.9844 4.88867 34.7653 5.31688C35.5587 5.74509 36.1696 6.35593 36.5978 7.14938C37.0386 7.93024 37.259 8.83075 37.259 9.85091ZM34.5197 9.09524C34.5071 8.41513 34.2615 7.87357 33.7829 7.47054C33.3043 7.05493 32.7187 6.84712 32.026 6.84712C31.371 6.84712 30.8169 7.04863 30.3635 7.45165C29.9227 7.84208 29.6519 8.38994 29.5511 9.09524H34.5197Z" fill="#001432"/>
<path id="Vector_14" d="M20.5841 12.8746L23.2289 4.84558H26.0438L22.171 15.3116H18.9594L15.1055 4.84558H17.9392L20.5841 12.8746Z" fill="#001432"/>
<path id="Vector_15" d="M12.3024 3.59825C11.8364 3.59825 11.446 3.45341 11.1311 3.16374C10.8289 2.86147 10.6777 2.48993 10.6777 2.04913C10.6777 1.60832 10.8289 1.24308 11.1311 0.953402C11.446 0.651134 11.8364 0.5 12.3024 0.5C12.7684 0.5 13.1526 0.651134 13.4548 0.953402C13.7697 1.24308 13.9271 1.60832 13.9271 2.04913C13.9271 2.48993 13.7697 2.86147 13.4548 3.16374C13.1526 3.45341 12.7684 3.59825 12.3024 3.59825ZM13.606 4.84511V15.3112H10.9611V4.84511H13.606Z" fill="#001432"/>
<path id="Vector_16" d="M3.38234 13.2164L9.28194 13.2164V15.3134L0.737496 15.3134L0.737305 2.25867H3.38215L3.38234 13.2164Z" fill="#001432"/>
</g>
</svg>
