<svg width="14" height="14" viewBox="0 0 14 14" fill="none" xmlns="http://www.w3.org/2000/svg">
<g id="ic/normal/erase">
<path id="Union" fill-rule="evenodd" clip-rule="evenodd" d="M7.98239 1.42013C8.16463 1.23789 8.46011 1.23789 8.64235 1.42013L12.5799 5.35763C12.7621 5.53988 12.7621 5.83535 12.5799 6.0176L6.814 11.7834H12.2498C12.5075 11.7834 12.7165 11.9924 12.7165 12.2501C12.7165 12.5078 12.5075 12.7168 12.2498 12.7168H5.66344C5.48924 12.7168 5.33733 12.6213 5.25716 12.4799L1.41989 8.6426C1.23764 8.46035 1.23764 8.16488 1.41989 7.98263L1.85739 7.54513L1.88548 7.51704L1.91369 7.48883L1.92784 7.47467L1.94202 7.46049L1.95623 7.44628L1.97047 7.43204L1.98474 7.41778L1.99904 7.40348L2.01336 7.38915L2.02772 7.3748L2.0421 7.36042L2.05651 7.34601L2.07094 7.33157L2.08541 7.31711L2.0999 7.30262L2.11442 7.2881L2.14353 7.25899L2.17275 7.22977L2.20207 7.20044L2.2315 7.17102L2.24625 7.15627L2.26102 7.1415L2.27582 7.1267L2.29064 7.11188L2.32036 7.08216L2.38007 7.02245L2.41006 6.99246L2.44014 6.96238L2.45521 6.94731L2.47031 6.93221L2.50056 6.90196L2.56131 6.84121L2.62237 6.78015L2.65302 6.7495L2.66837 6.73415L2.68374 6.71878L2.69913 6.70339L2.71453 6.68798L2.7454 6.65712L2.77633 6.62619L2.80732 6.59519L2.83839 6.56413L2.85394 6.54857L2.86951 6.533L2.9007 6.50182L2.91632 6.4862L2.93195 6.47057L2.99461 6.40791L3.05749 6.34503L3.18383 6.21869L3.21553 6.18699L3.24727 6.15525L3.26315 6.13937L3.27904 6.12347L3.29495 6.10757L3.31086 6.09166L3.32678 6.07574L3.34271 6.05981L3.3746 6.02792L3.39055 6.01197L3.40651 5.996L3.42248 5.98003L3.43846 5.96406L3.45444 5.94807L3.47044 5.93208L3.50244 5.90008L3.51845 5.88407L3.53447 5.86805L3.55049 5.85203L3.56652 5.836L3.69491 5.70761L3.71098 5.69154L3.72705 5.67547L3.74312 5.6594L3.7592 5.64332L3.79136 5.61116L3.82353 5.57899L3.8557 5.54682L3.88788 5.51464L3.95225 5.45027L3.96834 5.43418L3.98443 5.41808L4.00052 5.40199L4.01661 5.3859L4.0327 5.36981L4.04879 5.35373L4.06488 5.33764L4.08096 5.32155L4.09704 5.30547L4.11313 5.28939L4.1292 5.27331L4.14528 5.25724L4.16135 5.24117L4.17742 5.2251L4.19349 5.20903L4.20955 5.19297L4.22561 5.17691L4.24166 5.16085L4.25771 5.1448L4.27376 5.12876L4.2898 5.11272L4.30584 5.09668L4.32187 5.08065L4.33789 5.06462L4.35391 5.0486L4.36993 5.03259L4.38594 5.01658L4.40194 5.00058L4.41794 4.98458L4.43392 4.96859L4.44991 4.95261L4.46588 4.93664L4.48185 4.92067L4.49781 4.90471L4.51376 4.88876L4.5297 4.87281L4.54564 4.85688L4.56157 4.84095L4.57748 4.82503L4.59339 4.80912L4.60929 4.79322L4.62518 4.77733L4.64106 4.76145L4.65693 4.74558L4.6728 4.72972L4.68865 4.71387L4.70449 4.69803L4.72031 4.6822L4.73613 4.66638L4.75194 4.65058L4.76773 4.63478L4.78352 4.619L4.79929 4.60323L4.81505 4.58747L4.8308 4.57172L4.84653 4.55599L4.86225 4.54027L4.87796 4.52456L4.89365 4.50886L4.90934 4.49318L4.925 4.47751L4.94066 4.46186L4.9563 4.44622L4.97192 4.4306L5.00313 4.39939L5.01871 4.38381L5.03427 4.36824L5.04982 4.35269L5.06536 4.33716L5.08087 4.32164L5.09637 4.30614L5.11186 4.29066L5.12733 4.27519L5.14278 4.25974L5.15821 4.2443L5.17363 4.22889L5.18903 4.21349L5.20441 4.19811L5.21977 4.18274L5.23512 4.1674L5.25044 4.15207L5.26575 4.13677L5.28104 4.12148L5.342 4.06052L5.40264 3.99988L5.46294 3.93958L5.47796 3.92456L5.49296 3.90956L5.52289 3.87963L5.58248 3.82004L5.64168 3.76084L5.67114 3.73138L5.68583 3.71669L5.70049 3.70203L5.75889 3.64362L5.81687 3.58565L5.87441 3.5281L5.9315 3.47102L5.95987 3.44265L5.97401 3.42851L5.98812 3.4144L6.01625 3.38626L6.04426 3.35826L6.15504 3.24748L6.26371 3.1388L6.29054 3.11198L6.3039 3.09862L6.31723 3.08529L6.33052 3.072L6.34377 3.05875L6.37017 3.03234L6.42253 2.97998L6.43553 2.96698L6.44849 2.95402L6.4743 2.92822L6.49995 2.90256L6.51272 2.88979L6.52545 2.87707L6.53814 2.86437L6.55079 2.85172L6.56341 2.83911L6.57598 2.82654L6.58851 2.81401L6.601 2.80152L6.61345 2.78907L6.62586 2.77665L6.63823 2.76429L6.65056 2.75196L6.67509 2.72743L6.72365 2.67887L6.74767 2.65484L6.75962 2.6429L6.77152 2.63099L6.8187 2.58382L6.83038 2.57214L6.84202 2.5605L6.86516 2.53736L7.04357 2.35894L7.06501 2.33751L7.08625 2.31627L7.12812 2.2744L7.2094 2.19311L7.24879 2.15373L7.28731 2.11521L7.32496 2.07756L7.33424 2.06828L7.34346 2.05906L7.35262 2.0499L7.36172 2.04079L7.37977 2.02275L7.39758 2.00493L7.43253 1.96999L7.46654 1.93598L7.4996 1.90291L7.50772 1.8948L7.51578 1.88674L7.52377 1.87874L7.53171 1.87081L7.56284 1.83968L7.59298 1.80954L7.62211 1.7804L7.65023 1.75228L7.6571 1.74542L7.6639 1.73861L7.67732 1.7252L7.72833 1.67419L7.81731 1.58521L7.83676 1.56576L7.84144 1.56108L7.84605 1.55647L7.85505 1.54747L7.87218 1.53033L7.87628 1.52623L7.88031 1.52221L7.88814 1.51438L7.93988 1.46264L7.9716 1.43091L7.9763 1.42622L7.97967 1.42285L7.98031 1.42221L7.98086 1.42166L7.98171 1.42081L7.982 1.42051L7.98222 1.4203L7.98234 1.42017L8.31237 1.75011L7.98239 1.42013ZM8.31237 2.41008L8.28208 2.44037L8.26764 2.45481L8.26032 2.46213L8.25295 2.4695L8.22281 2.49964L8.19168 2.53077L8.18374 2.53871L8.17574 2.54671L8.15957 2.56288L8.12651 2.59594L8.10962 2.61283L8.10108 2.62136L8.09249 2.62996L8.05755 2.6649L8.03973 2.68272L8.03074 2.69171L8.02169 2.70076L7.94728 2.77517L7.93773 2.78472L7.92812 2.79433L7.90875 2.8137L7.88917 2.83328L7.86937 2.85308L7.78809 2.93436L7.76725 2.9552L7.74621 2.97624L7.73562 2.98683L7.72497 2.99747L7.70354 3.01891L7.69275 3.0297L7.68191 3.04054L7.66008 3.06237L7.64909 3.07336L7.63806 3.08439L7.62698 3.09547L7.61585 3.1066L7.52512 3.19733L7.47866 3.24379L7.43149 3.29096L7.41959 3.30286L7.40764 3.31481L7.39565 3.3268L7.38362 3.33883L7.35942 3.36303L7.34726 3.37519L7.33506 3.38739L7.28583 3.43662L7.26097 3.46148L7.24848 3.47397L7.23594 3.48651L7.13427 3.58818L7.12138 3.60107L7.10846 3.61399L7.0955 3.62695L7.0825 3.63995L7.03014 3.69231L7.01696 3.70549L7.00374 3.71871L6.97719 3.74526L6.96387 3.75858L6.95051 3.77194L6.93711 3.78534L6.92368 3.79877L6.91021 3.81224L6.89671 3.82574L6.88318 3.83927L6.86961 3.85284L6.85601 3.86644L6.84237 3.88008L6.82871 3.89374L6.815 3.90745L6.70423 4.01822L6.67622 4.04623L6.66217 4.06028L6.64809 4.07436L6.61984 4.10261L6.59147 4.13098L6.57724 4.14521L6.56298 4.15947L6.53438 4.18807L6.52004 4.20241L6.50566 4.21679L6.49126 4.23118L6.47684 4.24561L6.46238 4.26007L6.4479 4.27455L6.43339 4.28906L6.41886 4.30359L6.4043 4.31815L6.38971 4.33274L6.3751 4.34735L6.36046 4.36199L6.3311 4.39135L6.31639 4.40606L6.30165 4.4208L6.28688 4.43557L6.27209 4.45036L6.24244 4.48001L6.2127 4.50975L6.19779 4.52466L6.18286 4.53959L6.12291 4.59954L6.10786 4.61459L6.0928 4.62965L6.07771 4.64474L6.0626 4.65985L6.04748 4.67497L6.03233 4.69012L6.00197 4.72048L5.98676 4.73569L5.97153 4.75092L5.95628 4.76617L5.94101 4.78144L5.92572 4.79673L5.91041 4.81204L5.89508 4.82737L5.87974 4.84271L5.86438 4.85807L5.849 4.87345L5.8336 4.88885L5.81818 4.90427L5.80275 4.9197L5.78729 4.93516L5.77183 4.95062L5.75634 4.96611L5.74084 4.98161L5.72532 4.99713L5.70979 5.01266L5.69424 5.02821L5.67867 5.04378L5.66309 5.05936L5.63189 5.09056L5.5693 5.15315L5.55362 5.16883L5.53793 5.18452L5.52222 5.20023L5.5065 5.21595L5.49076 5.23169L5.47501 5.24743L5.45926 5.26319L5.44348 5.27897L5.4277 5.29475L5.41191 5.31054L5.3961 5.32635L5.38028 5.34217L5.36445 5.358L5.34861 5.37384L5.33276 5.38969L5.3169 5.40555L5.30103 5.42142L5.28515 5.4373L5.26926 5.45319L5.25336 5.46909L5.23745 5.485L5.22153 5.50092L5.20561 5.51684L5.18967 5.53278L5.17373 5.54872L5.15777 5.56468L5.14181 5.58064L5.12585 5.5966L5.10987 5.61258L5.09389 5.62856L5.0779 5.64455L5.06191 5.66054L5.0459 5.67655L5.0299 5.69255L5.01388 5.70857L4.99786 5.72459L4.98183 5.74062L4.9658 5.75665L4.94977 5.77268L4.93373 5.78872L4.91768 5.80477L4.90163 5.82082L4.88557 5.83688L4.86952 5.85293L4.85345 5.869L4.83739 5.88506L4.82132 5.90113L4.80525 5.9172L4.78917 5.93328L4.77309 5.94936L4.75701 5.96544L4.74093 5.98152L4.73662 5.98583L8.01415 9.26337L11.5899 5.68761L8.31237 2.41008ZM7.35419 9.92333L4.07665 6.6458L4.06648 6.65597L4.03456 6.68789L4.01862 6.70383L4.00268 6.71977L3.97083 6.75162L3.95491 6.76754L3.93901 6.78344L3.92312 6.79933L3.90723 6.81522L3.89136 6.83109L3.87549 6.84696L3.85964 6.86281L3.8438 6.87865L3.82796 6.89449L3.81214 6.91031L3.79633 6.92612L3.78053 6.94192L3.71745 7.005L3.70171 7.02074L3.68599 7.03646L3.65457 7.06788L3.59191 7.13054L3.56067 7.16178L3.54506 7.17738L3.52948 7.19297L3.51391 7.20854L3.49835 7.2241L3.46729 7.25516L3.43629 7.28616L3.40536 7.31709L3.34371 7.37874L3.32834 7.39411L3.31298 7.40947L3.28234 7.44011L3.26704 7.45541L3.25177 7.47068L3.22127 7.50118L3.10011 7.62234L3.04003 7.68242L3.01013 7.71232L2.99522 7.72723L2.98032 7.74213L2.86204 7.86041L2.84737 7.87508L2.83272 7.88973L2.81809 7.90436L2.8035 7.91895L2.77438 7.94807L2.74537 7.97708L2.73091 7.99154L2.71647 8.00598L2.70206 8.02039L2.68768 8.03477L2.67333 8.04912L2.659 8.06345L2.64471 8.07774L2.63044 8.09201L2.60199 8.12046L2.57366 8.14879L2.51735 8.2051L2.40984 8.31261L5.68737 11.5901L7.35419 9.92333Z" fill="#1A1A1A" fill-opacity="0.57"/>
</g>
</svg>
