<svg width="17" height="17" viewBox="0 0 17 17" fill="none" xmlns="http://www.w3.org/2000/svg">
<g id="ic_shortcut">
<path id="Union" fill-rule="evenodd" clip-rule="evenodd" d="M2.38916 4.11111C2.38916 5.49182 3.50845 6.61111 4.88916 6.61111H6.38916V9.61111H4.88916C3.50845 9.61111 2.38916 10.7304 2.38916 12.1111C2.38916 13.4918 3.50845 14.6111 4.88916 14.6111C6.26987 14.6111 7.38916 13.4918 7.38916 12.1111L7.38916 10.6111H10.3892V12.1111C10.3892 13.4918 11.5084 14.6111 12.8892 14.6111C14.2699 14.6111 15.3892 13.4918 15.3892 12.1111C15.3892 10.7304 14.2699 9.61111 12.8892 9.61111L11.3892 9.61111V6.61111H12.8892C14.2699 6.61111 15.3892 5.49182 15.3892 4.11111C15.3892 2.73039 14.2699 1.61111 12.8892 1.61111C11.5084 1.61111 10.3892 2.73039 10.3892 4.11111L10.3892 5.61111L7.38916 5.61111V4.11111C7.38916 2.73039 6.26987 1.61111 4.88916 1.61111C3.50845 1.61111 2.38916 2.73039 2.38916 4.11111ZM3.38916 4.11111C3.38916 4.93953 4.06073 5.61111 4.88916 5.61111H6.38916V4.11111C6.38916 3.28268 5.71759 2.61111 4.88916 2.61111C4.06073 2.61111 3.38916 3.28268 3.38916 4.11111ZM7.38916 9.61111L10.3892 9.61111V6.61111H7.38916L7.38916 9.61111ZM14.3892 4.11111C14.3892 4.93953 13.7176 5.61111 12.8892 5.61111H11.3892V4.11111C11.3892 3.28268 12.0607 2.61111 12.8892 2.61111C13.7176 2.61111 14.3892 3.28268 14.3892 4.11111ZM4.88916 10.6111C4.06073 10.6111 3.38916 11.2827 3.38916 12.1111C3.38916 12.9395 4.06073 13.6111 4.88916 13.6111C5.71759 13.6111 6.38916 12.9395 6.38916 12.1111L6.38916 10.6111H4.88916ZM14.3892 12.1111C14.3892 11.2827 13.7176 10.6111 12.8892 10.6111H11.3892V12.1111C11.3892 12.9395 12.0607 13.6111 12.8892 13.6111C13.7176 13.6111 14.3892 12.9395 14.3892 12.1111Z" fill="#1A1A1A"/>
</g>
</svg>
