<svg width="32" height="32" viewBox="0 0 32 32" fill="none" xmlns="http://www.w3.org/2000/svg">
<g id="ic_globe">
<path id="Union" fill-rule="evenodd" clip-rule="evenodd" d="M16 4C15.6883 4 15.2792 4.16039 14.7936 4.69438C14.3078 5.22865 13.8244 6.05754 13.3978 7.16659C13.0799 7.99307 12.8044 8.94685 12.584 10H19.416C19.1956 8.94685 18.9201 7.99307 18.6022 7.16659C18.1756 6.05754 17.6922 5.22865 17.2064 4.69438C16.7208 4.16039 16.3117 4 16 4ZM11.5311 6.44863C11.1299 7.49192 10.7963 8.68988 10.5441 10H5.60539C7.10239 7.41213 9.53805 5.4352 12.4468 4.53476C12.105 5.10475 11.7998 5.7501 11.5311 6.44863ZM10.2337 12H4.68282C4.24062 13.2511 4 14.5975 4 16C4 17.4025 4.24062 18.7489 4.68282 20H10.2337C10.0812 18.7304 10 17.3867 10 16C10 14.6133 10.0812 13.2696 10.2337 12ZM10.5441 22H5.60539C7.10239 24.5879 9.53805 26.5648 12.4468 27.4652C12.105 26.8952 11.7998 26.2499 11.5311 25.5514C11.1299 24.5081 10.7963 23.3101 10.5441 22ZM12.584 22H19.416C19.1956 23.0531 18.9201 24.0069 18.6022 24.8334C18.1756 25.9425 17.6922 26.7713 17.2064 27.3056C16.7208 27.8396 16.3117 28 16 28C15.6883 28 15.2792 27.8396 14.7936 27.3056C14.3078 26.7713 13.8244 25.9425 13.3978 24.8334C13.0799 24.0069 12.8044 23.0531 12.584 22ZM19.7509 20H12.2491C12.0883 18.7505 12 17.4056 12 16C12 14.5944 12.0883 13.2495 12.2491 12H19.7509C19.9117 13.2495 20 14.5944 20 16C20 17.4056 19.9117 18.7505 19.7509 20ZM21.4559 22C21.2037 23.3101 20.8701 24.5081 20.4689 25.5514C20.2002 26.2499 19.895 26.8952 19.5532 27.4652C22.4619 26.5648 24.8976 24.5879 26.3946 22H21.4559ZM27.3172 20H21.7663C21.9188 18.7304 22 17.3867 22 16C22 14.6133 21.9188 13.2696 21.7663 12H27.3172C27.7594 13.2511 28 14.5975 28 16C28 17.4025 27.7594 18.7489 27.3172 20ZM19.5532 4.53476C22.4619 5.4352 24.8976 7.41214 26.3946 10H21.4559C21.2037 8.68988 20.8701 7.49192 20.4689 6.44863C20.2002 5.7501 19.895 5.10475 19.5532 4.53476ZM16 30C23.732 30 30 23.732 30 16C30 8.26801 23.732 2 16 2C8.26801 2 2 8.26801 2 16C2 23.732 8.26801 30 16 30Z" fill="#1A1A1A"/>
</g>
</svg>
